<svg xmlns="http://www.w3.org/2000/svg" viewBox="0 0 1024 1024">
  <defs>
    <linearGradient id="bg" x1="0" y1="0" x2="0" y2="1">
      <stop offset="0%" stop-color="#1d2530"/>
      <stop offset="100%" stop-color="#0d1117"/>
    </linearGradient>
    <linearGradient id="acc" x1="0" y1="0" x2="1" y2="1">
      <stop offset="0%" stop-color="#ffb347"/>
      <stop offset="100%" stop-color="#ff9900"/>
    </linearGradient>
  </defs>
  <rect width="1024" height="1024" rx="224" fill="url(#bg)"/>
  <rect x="64" y="64" width="896" height="896" rx="180" fill="none" stroke="#2a3340" stroke-width="4"/>
  <!-- stylised cube / cluster -->
  <g transform="translate(512 540)" fill="url(#acc)">
    <path d="M0,-260 L225,-130 L225,130 L0,260 L-225,130 L-225,-130 Z" opacity="0.18"/>
    <path d="M0,-200 L173,-100 L173,100 L0,200 L-173,100 L-173,-100 Z" fill="#ff9900" opacity="0.95"/>
    <path d="M-173,-100 L0,0 L173,-100 L0,-200 Z" fill="#ffb347"/>
    <path d="M0,0 L0,200 L173,100 L173,-100 Z" fill="#cc7a00"/>
  </g>
  <!-- subtle wordmark dot -->
  <circle cx="512" cy="824" r="14" fill="#ff9900"/>
</svg>
